    <svg xmlns="http://www.w3.org/2000/svg" xmlns:xlink="http://www.w3.org/1999/xlink" width="120" height="120"><path fill-rule="evenodd" clip-rule="evenodd" fill="white" d="M0 120h120V0H0z"/><defs><path id="a" d="M0 0h120v120H0z"/></defs><clipPath id="b"><use xlink:href="#a" overflow="visible"/></clipPath><g clip-path="url(#b)"><path fill-rule="evenodd" clip-rule="evenodd" fill="white" d="M60 119.5a43 43 0 0 1-26.2-8.8A159.3 159.3 0 0 1-.5 74.5V-.6h121v75.1A158.5 158.5 0 0 1 86 110.7a42.9 42.9 0 0 1-26.1 8.8z"/><path fill="black" d="M120 0v74.2c-9.6 13.8-20.8 26-34.2 36.1a42.8 42.8 0 0 1-51.6 0A157.8 157.8 0 0 1 0 74.3V0h120m1-1H-1v75.6l.1.3c10 14.3 21.6 26.5 34.4 36.3a43.5 43.5 0 0 0 53 0 159 159 0 0 0 34.4-36.3l.2-.3V-1z"/></g><path fill-rule="evenodd" clip-rule="evenodd" fill="black" d="M60 95.4c3.3 0 6.4.9 9 2.5 1 .6 2.2-.6 1.5-1.5a13 13 0 0 0-21 0c-.7 1 .5 2 1.5 1.5 2.6-1.6 5.7-2.5 9-2.5"/><path fill="none" stroke="black" stroke-width="1.6" stroke-linecap="round" d="M26.8 53l17.6-7.5c2.5-1 5.2-1.6 8-1.6h15.3c2.7 0 5.4.6 8 1.6L93.1 53"/><path fill="none" stroke="black" stroke-width="1.6" stroke-linecap="round" stroke-linejoin="round" d="M92.7 53.6C87.6 77 71.3 80.3 60 80.3S32.4 77 27.3 53.6"/><path fill-rule="evenodd" clip-rule="evenodd" fill="#2A2C33" d="M29.5 55.7C49.7 74.5 70.9 74.3 91 55l.2-.7C80.5 52.1 70 51 59.3 51S38.7 52 28.8 54.4l.8 1.3z"/><defs><filter id="c" filterUnits="userSpaceOnUse" x="33" y="57.7" width="54.1" height="20.4"><feColorMatrix values="1 0 0 0 0 0 1 0 0 0 0 0 1 0 0 0 0 0 1 0"/></filter></defs><mask maskUnits="userSpaceOnUse" x="33" y="57.7" width="54.1" height="20.4" id="d"><path fill-rule="evenodd" clip-rule="evenodd" fill="#FFF" d="M29.5 55.7C49.7 74.5 70.9 74.3 91 55l.2-.7C80.5 52.1 70 51 59.3 51S38.7 52 28.8 54.4l.8 1.3z" filter="url(#c)"/></mask><path mask="url(#d)" fill-rule="evenodd" clip-rule="evenodd" fill="#90130E" d="M87 68c0 5.5-12 10-27 10s-27-4.5-27-10 12-10.3 27-10.3S87 62.3 87 68"/><defs><filter id="e" filterUnits="userSpaceOnUse" x="28.7" y="47.3" width="62.7" height="10.8"><feColorMatrix values="1 0 0 0 0 0 1 0 0 0 0 0 1 0 0 0 0 0 1 0"/></filter></defs><mask maskUnits="userSpaceOnUse" x="28.7" y="47.3" width="62.7" height="10.8" id="f"><path fill-rule="evenodd" clip-rule="evenodd" fill="#FFF" d="M29.5 55.7C49.7 74.5 70.9 74.3 91 55l.2-.7C80.5 52.1 70 51 59.3 51S38.7 52 28.8 54.4l.8 1.3z" filter="url(#e)"/></mask><path mask="url(#f)" fill-rule="evenodd" clip-rule="evenodd" fill="#FFF" d="M74 47.3H46l-17.3.4 4 6.2c7.3 2.6 16.8 4.2 27.3 4.2s20-1.6 27.4-4.2l4-6.2-17.4-.4z"/><path fill="none" stroke="#2A2C33" stroke-width="2.1" stroke-linecap="round" stroke-linejoin="round" d="M29.5 55.7C49.7 74.5 70.9 74.3 91 55l.2-.7C80.5 52.1 70 51 59.3 51S38.7 52 28.8 54.4l.8 1.3z"/><path fill="none" stroke="black" stroke-width="1.6" stroke-linecap="round" d="M77.1 11.2l-9.5 9.6c-4.2 4.2-11 4.2-15.2 0l-9.6-9.6"/></svg>
