    <svg xmlns="http://www.w3.org/2000/svg" xmlns:xlink="http://www.w3.org/1999/xlink" width="120" height="120"><path fill-rule="evenodd" clip-rule="evenodd" fill="white" d="M0 120h120V0H0z"/><defs><path id="a" d="M0 0h120v120H0z"/></defs><clipPath id="b"><use xlink:href="#a" overflow="visible"/></clipPath><g clip-path="url(#b)"><path fill-rule="evenodd" clip-rule="evenodd" fill="white" d="M60 114.7a44 44 0 0 1-26.8-9C21.2 96.6 10.5 85-.4 69.3l-.1-.2V-.5h121V69.2a154.6 154.6 0 0 1-33.7 36.5 44 44 0 0 1-26.8 9z"/><path fill="black" d="M120 0v69a155 155 0 0 1-33.5 36.3 43.4 43.4 0 0 1-53 0A155.3 155.3 0 0 1 0 69V0h120m1-1H-1v70.3l.1.3C10.1 85.4 20.8 97 33 106a44.5 44.5 0 0 0 54.2 0C99.1 97 110 85.4 121 69.6l.2-.3V-1z"/></g><path fill-rule="evenodd" clip-rule="evenodd" fill="black" d="M60 89.5c3.3 0 6.4.9 9 2.5 1 .6 2.2-.6 1.5-1.5a13 13 0 0 0-21 0c-.7 1 .5 2 1.5 1.5 2.6-1.6 5.7-2.5 9-2.5"/><path fill="none" stroke="black" stroke-width="1.6" stroke-linecap="round" stroke-linejoin="round" d="M24.6 52.5l19.4-7a25.7 25.7 0 0 1 8.8-1.6h14.4c3 0 6 .5 8.8 1.6l19.3 7"/><path fill="none" stroke="black" stroke-width="1.6" stroke-linecap="round" d="M95.3 55C84 69.1 85.5 76.6 60 76.6S36 69.1 24.6 55"/><path fill-rule="evenodd" clip-rule="evenodd" fill="#2A2C33" d="M95.3 53.4a297.5 297.5 0 0 0-70.7 0v1a57 57 0 0 0 35.5 11.1 57 57 0 0 0 35.3-11"/><defs><filter id="c" filterUnits="userSpaceOnUse" x="30.6" y="57.4" width="58.8" height="10.8"><feColorMatrix values="1 0 0 0 0 0 1 0 0 0 0 0 1 0 0 0 0 0 1 0"/></filter></defs><mask maskUnits="userSpaceOnUse" x="30.6" y="57.4" width="58.8" height="10.8" id="d"><path fill-rule="evenodd" clip-rule="evenodd" fill="#FFF" d="M95.3 53.4a297.5 297.5 0 0 0-70.7 0v1a57 57 0 0 0 35.5 11.1 57 57 0 0 0 35.3-11" filter="url(#c)"/></mask><path mask="url(#d)" fill-rule="evenodd" clip-rule="evenodd" fill="#FFF" d="M60 60.3c-10.5 0-20.4-1-28.7-2.9-.3 0-.7.2-.7.5v7.3c8.5 1.9 18.6 3 29.4 3s20.9-1.1 29.4-3v-7.3c0-.3-.4-.6-.7-.5-8.4 1.8-18.2 2.9-28.7 2.9"/><defs><filter id="e" filterUnits="userSpaceOnUse" x="21.6" y="44.2" width="76.7" height="12"><feColorMatrix values="1 0 0 0 0 0 1 0 0 0 0 0 1 0 0 0 0 0 1 0"/></filter></defs><mask maskUnits="userSpaceOnUse" x="21.6" y="44.2" width="76.7" height="12" id="f"><path fill-rule="evenodd" clip-rule="evenodd" fill="#FFF" d="M95.3 53.4a297.5 297.5 0 0 0-70.7 0v1a57 57 0 0 0 35.5 11.1 57 57 0 0 0 35.3-11" filter="url(#e)"/></mask><path mask="url(#f)" fill-rule="evenodd" clip-rule="evenodd" fill="#FFF" d="M77.2 44.2H42.8l-21.2.5 4.8 6.8c9 3 20.8 4.6 33.6 4.6s24.5-1.7 33.5-4.6l4.8-6.8-21.1-.5z"/><path fill="none" stroke="#2A2C33" stroke-width="2.1" stroke-linecap="round" d="M95.3 53.4a297.5 297.5 0 0 0-70.7 0v1a57 57 0 0 0 35.5 11.1 57 57 0 0 0 35.3-11"/><path fill="none" stroke="black" stroke-width="1.6" stroke-linecap="round" d="M77.1 11.2l-9.5 9.6c-4.2 4.2-11 4.2-15.2 0l-9.6-9.6"/></svg>
