<svg xmlns="http://www.w3.org/2000/svg" xmlns:xlink="http://www.w3.org/1999/xlink" width="120" height="120"><path fill-rule="evenodd" clip-rule="evenodd" fill="white" d="M0 120h120V0H0z"/><defs><path id="a" d="M0 0h120v120H0z"/></defs><clipPath id="b"><use xlink:href="#a" overflow="visible"/></clipPath><g clip-path="url(#b)"><path fill-rule="evenodd" clip-rule="evenodd" fill="white" d="M60 102.9A43 43 0 0 1 33.9 94 158.2 158.2 0 0 1-.4 58l-.1-.1V-.5h121v58.4A158.2 158.2 0 0 1 86 94.1 43 43 0 0 1 60 103z"/><path fill="black" d="M120 0v57.6a157 157 0 0 1-34.2 36 42.7 42.7 0 0 1-51.6 0A157 157 0 0 1 0 57.7V0h120m1-1H-1v59l.1.2c10 14.4 21.6 26.6 34.4 36.3a43.5 43.5 0 0 0 53 0c12.8-9.7 24.4-21.9 34.4-36.3l.2-.3V-1z"/></g><path fill-rule="evenodd" clip-rule="evenodd" fill="black" d="M60 78.8c3.3 0 6.4.9 9 2.5 1 .6 2.2-.6 1.5-1.5a13 13 0 0 0-21 0c-.7.9.5 2 1.5 1.5 2.6-1.6 5.7-2.5 9-2.5"/><path fill="none" d="M0 0h120v120H0z"/><path fill="none" stroke="black" stroke-width="1.6" stroke-linecap="round" stroke-linejoin="round" d="M93.3 54.2c-8.6 8.5-21.8 8.5-33.3 8.5s-27.3 0-33.4-8.5l.2-1.7 14.2-4c2-.6 9.3-.8 11.3-.8h15.4c2 0 11 .2 12.9.8l12.6 4 .2 1.7z"/><path fill="none" stroke="black" stroke-width="2.1" stroke-linecap="round" d="M26.8 53.2a329.4 329.4 0 0 0 66.4 0"/><path fill="none" stroke="black" stroke-width="1.6" stroke-linecap="round" d="M77.1 11.2l-9.5 9.6c-4.2 4.2-11 4.2-15.2 0l-9.6-9.6"/></svg>
