    <svg id="Layer_1" xmlns="http://www.w3.org/2000/svg" xmlns:xlink="http://www.w3.org/1999/xlink" width="120" height="120"><style>.st0{fill-rule:evenodd;clip-rule:evenodd;fill:white;}</style><path id="background" class="st0" d="M0 120h120V0H0z"/><defs><path id="background_1_" d="M0 120h120V0H0z"/></defs><clipPath id="background_2_"><use xlink:href="#background_1_" overflow="visible"/></clipPath><g clip-path="url(#background_2_)"><g id="Fill-182"><path d="M60 102.9c-9.5 0-18.6-3-26.1-8.8A156.1 156.1 0 0 1-.4 57.9l-.1-.1V-.5h121.1v58.3l-.1.1a158.3 158.3 0 0 1-34.3 36.2 43.5 43.5 0 0 1-26.2 8.8z" fill-rule="evenodd" clip-rule="evenodd" fill="white"/><path d="M120 0v57.6c-9.6 13.8-20.8 26-34.2 36.1a43 43 0 0 1-51.6 0A156.4 156.4 0 0 1 0 57.6V0h120m1.1-1.1H-1.1V58l.2.3c10 14.4 21.6 26.6 34.4 36.3a44.2 44.2 0 0 0 53 0 159.2 159.2 0 0 0 34.4-36.3l.2-.3V-1.1z" fill="black"/></g></g><path id="Fill-238" class="st0" d="M60 78.8c3.3 0 6.4.9 9 2.5 1 .6 2.2-.6 1.5-1.5a13.1 13.1 0 0 0-21 0c-.7.9.5 2.1 1.5 1.5 2.6-1.6 5.7-2.5 9-2.5"/><path id="lips" d="M92.7 53.6c-10.5 7-21.4 10.7-32.7 10.7s-22.2-3.7-32.7-10.7l.5-.5 17.6-7c2.5-1 5.2-1.5 8-1.5h13.2c2.7 0 5.4.5 8 1.5l17.6 7 .5.5z" fill="none" stroke="black" stroke-width="1.6" stroke-linecap="round" stroke-linejoin="round"/><path id="hole" d="M27.3 53.6h65.4" fill="none" stroke="#2a2c33" stroke-width="2.1" stroke-linecap="round"/><path id="nose" d="M77.1 11.2l-9.6 9.6c-4.2 4.2-11 4.2-15.2 0l-9.6-9.6" fill="none" stroke="black" stroke-width="1.6" stroke-linecap="round"/></svg>
